<svg width="15" height="23" viewBox="0 0 15 23" fill="none" xmlns="http://www.w3.org/2000/svg">
<path d="M7.27841 22.1818V0.363635H8.67614V22.1818H7.27841ZM10.9858 7.56534C10.9176 6.87784 10.625 6.34375 10.108 5.96307C9.59091 5.58239 8.8892 5.39204 8.00284 5.39204C7.40057 5.39204 6.89205 5.47727 6.47727 5.64773C6.0625 5.8125 5.74432 6.04261 5.52273 6.33807C5.30682 6.63352 5.19886 6.96875 5.19886 7.34375C5.1875 7.65625 5.25284 7.92898 5.39489 8.16193C5.54261 8.39489 5.74432 8.59659 6 8.76705C6.25568 8.93182 6.55114 9.0767 6.88636 9.2017C7.22159 9.32102 7.57955 9.4233 7.96023 9.50852L9.52841 9.88352C10.2898 10.054 10.9886 10.2812 11.625 10.5653C12.2614 10.8494 12.8125 11.1989 13.2784 11.6136C13.7443 12.0284 14.1051 12.517 14.3608 13.0795C14.6222 13.642 14.7557 14.2869 14.7614 15.0142C14.7557 16.0824 14.483 17.0085 13.9432 17.7926C13.4091 18.571 12.6364 19.1761 11.625 19.608C10.6193 20.0341 9.40625 20.2472 7.9858 20.2472C6.5767 20.2472 5.34943 20.0312 4.30398 19.5994C3.2642 19.1676 2.4517 18.5284 1.86648 17.6818C1.28693 16.8295 0.982955 15.7756 0.954545 14.5199H4.52557C4.56534 15.1051 4.73295 15.5937 5.02841 15.9858C5.32955 16.3722 5.73011 16.6648 6.23011 16.8636C6.7358 17.0568 7.30682 17.1534 7.94318 17.1534C8.56818 17.1534 9.1108 17.0625 9.57102 16.8807C10.0369 16.6989 10.3977 16.446 10.6534 16.1222C10.9091 15.7983 11.0369 15.4261 11.0369 15.0057C11.0369 14.6136 10.9205 14.2841 10.6875 14.017C10.4602 13.75 10.125 13.5227 9.68182 13.3352C9.24432 13.1477 8.70739 12.9773 8.07102 12.8239L6.17045 12.3466C4.69886 11.9886 3.53693 11.429 2.68466 10.6676C1.83239 9.90625 1.40909 8.88068 1.41477 7.59091C1.40909 6.53409 1.69034 5.6108 2.25852 4.82102C2.83239 4.03125 3.61932 3.41477 4.61932 2.97159C5.61932 2.52841 6.75568 2.30682 8.02841 2.30682C9.32386 2.30682 10.4545 2.52841 11.4205 2.97159C12.392 3.41477 13.1477 4.03125 13.6875 4.82102C14.2273 5.6108 14.5057 6.52557 14.5227 7.56534H10.9858Z" fill="currentColor"/>
</svg>
